<svg xmlns="http://www.w3.org/2000/svg" xmlns:xlink="http://www.w3.org/1999/xlink" width="2000" zoomAndPan="magnify" viewBox="0 0 1500 1499.999933" height="2000" preserveAspectRatio="xMidYMid meet" version="1.0"><defs><clipPath id="cd803d882d"><path d="M 548 18.226562 L 952 18.226562 L 952 261 L 548 261 Z M 548 18.226562 " clip-rule="nonzero"/></clipPath><clipPath id="083db46507"><path d="M 187.144531 818 L 1097 818 L 1097 1481.476562 L 187.144531 1481.476562 Z M 187.144531 818 " clip-rule="nonzero"/></clipPath><clipPath id="cb3f1fe2bc"><path d="M 574 818 L 1312.894531 818 L 1312.894531 1234 L 574 1234 Z M 574 818 " clip-rule="nonzero"/></clipPath><clipPath id="dc21c66e07"><path d="M 719 1317 L 867 1317 L 867 1481.476562 L 719 1481.476562 Z M 719 1317 " clip-rule="nonzero"/></clipPath></defs><path fill="#bcffc2" d="M 524.515625 569.324219 C 522.746094 605.523438 518.039062 739.71875 515.292969 766.816406 C 514.304688 776.515625 467.375 847.214844 462.472656 877.253906 C 457.824219 905.816406 455.847656 955.824219 455.667969 960.617188 L 386.171875 960.617188 C 356.9375 960.617188 333.253906 936.90625 333.253906 907.695312 L 333.253906 885.683594 C 333.214844 884.792969 333.191406 883.914062 333.253906 883.011719 C 342.058594 755.355469 415.832031 638.660156 524.515625 569.335938 Z M 524.515625 569.324219 " fill-opacity="1" fill-rule="nonzero"/><path fill="#bcffc2" d="M 912.21875 536.285156 C 904.046875 571.433594 889.15625 694.457031 884.960938 701.921875 C 880.058594 710.628906 797.902344 716.449219 749.996094 716.449219 C 702.089844 716.449219 619.9375 710.628906 615.035156 701.921875 C 610.863281 694.457031 595.898438 571.144531 587.726562 536.152344 C 630.195312 518.296875 676.308594 507.136719 724.789062 504.28125 C 790.402344 500.453125 854.324219 512.1875 912.21875 536.285156 Z M 912.21875 536.285156 " fill-opacity="1" fill-rule="nonzero"/><path fill="#bcffc2" d="M 1166.777344 883.023438 L 1166.777344 907.695312 C 1166.777344 936.917969 1143.09375 960.617188 1113.859375 960.617188 L 1044.328125 960.617188 C 1044.167969 955.882812 1042.167969 905.84375 1037.523438 877.253906 C 1032.621094 847.214844 985.6875 776.515625 984.699219 766.820312 C 981.96875 739.632812 977.238281 604.574219 975.457031 568.949219 C 1083.074219 636.332031 1158.933594 750.109375 1166.742188 883.011719 L 1166.777344 883.011719 Z M 1166.777344 883.023438 " fill-opacity="1" fill-rule="nonzero"/><g clip-path="url(#cd803d882d)"><path fill="#ffe793" d="M 951.699219 260.261719 C 951.699219 227.257812 916.488281 93.039062 894.484375 57.839844 C 872.484375 22.632812 805.722656 18.242188 749.984375 18.242188 C 694.25 18.242188 627.5 22.644531 605.484375 57.839844 C 583.484375 93.050781 548.273438 227.257812 548.273438 260.261719 Z M 951.699219 260.261719 " fill-opacity="1" fill-rule="nonzero"/></g><path fill="#ffe793" d="M 749.828125 359.660156 C 752.996094 359.660156 756.167969 359.636719 759.339844 359.625 C 935.792969 358.136719 1085.757812 315.351562 1075.355469 264.152344 C 1065.171875 214.0625 905.621094 176.070312 730.421875 179.011719 C 545.492188 182.144531 404.222656 229.894531 426.433594 280.433594 C 446.128906 325.328125 589.164062 359.660156 749.828125 359.660156 Z M 749.828125 359.660156 " fill-opacity="1" fill-rule="nonzero"/><path fill="#ffb580" d="M 749.898438 513.40625 C 751.742188 513.40625 753.582031 513.355469 755.414062 513.320312 C 857.703125 510.199219 944.648438 420.777344 938.609375 313.777344 C 932.707031 209.085938 840.210938 129.675781 738.640625 135.835938 C 631.425781 142.375 549.539062 242.1875 562.40625 347.816406 C 573.824219 441.644531 656.746094 513.40625 749.886719 513.40625 Z M 749.898438 513.40625 " fill-opacity="1" fill-rule="nonzero"/><path fill="#ffe793" d="M 996.433594 258.542969 C 963.1875 244.847656 903.511719 213.5625 749.996094 213.5625 C 596.472656 213.5625 536.808594 244.859375 503.5625 258.542969 L 749.996094 77.769531 Z M 996.433594 258.542969 " fill-opacity="1" fill-rule="nonzero"/><path fill="#194719" d="M 1044.328125 960.617188 L 455.667969 960.617188 C 455.847656 955.824219 457.824219 905.816406 462.472656 877.253906 C 467.375 847.214844 514.304688 776.515625 515.292969 766.820312 C 518.027344 739.71875 522.746094 605.511719 524.515625 569.324219 C 524.757812 564.300781 524.941406 561.179688 525.074219 560.484375 C 526.039062 554.679688 571.945312 527.785156 584.300781 526.980469 C 585.203125 526.917969 586.375 530.308594 587.738281 536.152344 C 595.910156 571.128906 610.863281 694.445312 615.046875 701.921875 C 619.949219 710.628906 702.101562 716.449219 750.007812 716.449219 C 797.914062 716.449219 880.070312 710.628906 884.972656 701.921875 C 889.167969 694.457031 904.070312 571.421875 912.230469 536.285156 C 913.609375 530.359375 914.804688 526.917969 915.707031 526.980469 C 928.050781 527.785156 973.957031 554.679688 974.929688 560.484375 C 975.054688 561.167969 975.238281 564.167969 975.46875 568.960938 C 977.238281 604.574219 981.96875 739.644531 984.714844 766.832031 C 985.699219 776.527344 1032.632812 847.226562 1037.535156 877.265625 C 1042.179688 905.84375 1044.179688 955.894531 1044.339844 960.628906 Z M 1044.328125 960.617188 " fill-opacity="1" fill-rule="nonzero"/><path fill="#ffb580" d="M 818.90625 436.535156 C 817.441406 451.207031 820.371094 521.613281 818.90625 534.808594 C 817.441406 548.007812 805.722656 590.289062 749.972656 590.289062 C 694.222656 590.289062 682.503906 548.019531 681.039062 534.808594 C 679.578125 521.613281 682.503906 451.207031 681.039062 436.535156 Z M 818.90625 436.535156 " fill-opacity="1" fill-rule="nonzero"/><g clip-path="url(#083db46507)"><path fill="#ffb580" d="M 1073.378906 1314.746094 C 1049.390625 1339.476562 1036.644531 1333.476562 1036.644531 1333.476562 C 1036.644531 1333.476562 1033.644531 1360.457031 1012.679688 1377.699219 C 991.6875 1394.933594 966.199219 1371.6875 966.199219 1371.6875 C 966.199219 1371.6875 965.457031 1391.179688 951.953125 1411.410156 C 938.464844 1431.644531 905.5 1433.144531 905.5 1433.144531 C 905.5 1433.144531 907.753906 1445.144531 900.242188 1460.121094 C 892.753906 1475.101562 880.765625 1481.113281 847.785156 1481.113281 C 842.6875 1481.113281 829.320312 1475.417969 810.125 1465.660156 C 790.109375 1455.488281 763.792969 1440.902344 733.921875 1423.742188 C 730.640625 1421.863281 727.300781 1419.9375 723.921875 1417.996094 C 702.359375 1405.519531 679.199219 1391.898438 655.414062 1377.738281 C 651.011719 1375.140625 646.597656 1372.503906 642.171875 1369.847656 C 612.621094 1352.199219 582.371094 1333.941406 553.285156 1316.292969 C 549.296875 1313.878906 545.332031 1311.464844 541.394531 1309.074219 C 522.234375 1297.4375 503.707031 1286.132812 486.351562 1275.546875 C 477.328125 1270.046875 468.644531 1264.738281 460.324219 1259.667969 C 451.277344 1254.140625 442.691406 1248.921875 434.675781 1244.042969 C 407.578125 1227.566406 386.890625 1215.078125 376.355469 1209.0625 C 348.011719 1192.929688 265.566406 1163.390625 187.277344 1136.996094 L 187.277344 818.101562 C 324.339844 873.09375 497.632812 942.296875 503.953125 943.199219 C 511.414062 944.273438 553.503906 930.160156 577.164062 921.929688 C 586.761719 918.597656 593.324219 916.234375 593.324219 916.234375 L 811.039062 945.273438 L 1088.355469 1138.644531 L 1087.976562 1233.824219 C 1087.976562 1233.824219 1094.34375 1248.066406 1095.84375 1259.3125 C 1097.34375 1270.558594 1097.34375 1290.035156 1073.355469 1314.78125 Z M 1073.378906 1314.746094 " fill-opacity="1" fill-rule="nonzero"/></g><g clip-path="url(#cb3f1fe2bc)"><path fill="#ffdbc1" d="M 1312.691406 818.101562 L 1312.691406 1144.511719 C 1235.296875 1166.097656 1122.238281 1192.246094 1120.589844 1193.332031 C 1117.210938 1195.585938 1087.992188 1233.796875 1087.992188 1233.796875 C 1087.992188 1233.796875 1081.246094 1203.453125 1047.523438 1168.597656 C 1013.789062 1133.742188 911.488281 1060.660156 874.398438 1030.316406 C 837.285156 999.960938 777.707031 970.738281 743.984375 967.359375 C 710.25 963.980469 677.648438 972.96875 677.648438 972.96875 C 677.648438 972.96875 674.84375 1008.949219 653.488281 1021.328125 C 632.121094 1033.695312 607.203125 1039.5 598.398438 1034.816406 C 576.675781 1023.269531 587.703125 968.484375 576.480469 949.003906 C 572.773438 942.589844 573.703125 932.589844 577.175781 921.90625 C 584.261719 900.160156 601.910156 875.558594 612.460938 872.546875 C 628.195312 868.046875 768.339844 846.324219 798.320312 855.3125 C 828.296875 864.316406 946.722656 943.089844 991.6875 944.917969 C 1017.179688 945.957031 1195.378906 872.242188 1312.703125 818.089844 Z M 1312.691406 818.101562 " fill-opacity="1" fill-rule="nonzero"/></g><path fill="#ffdbc1" d="M 515.195312 1225.066406 C 512.390625 1226.164062 509.535156 1227.578125 506.5 1229.101562 C 493.144531 1235.785156 481.023438 1244.617188 468.984375 1253.386719 C 464.59375 1256.582031 460.203125 1259.777344 455.824219 1262.972656 C 451.910156 1265.824219 445.789062 1268.421875 444.824219 1273.214844 C 444.289062 1275.863281 444.824219 1279.21875 445.007812 1281.886719 C 445.46875 1288.753906 446.679688 1295.621094 449.007812 1302.097656 C 454.789062 1318.183594 467.558594 1329.210938 484.304688 1332.734375 C 527.027344 1341.722656 553.417969 1295.070312 559.054688 1279.898438 C 563.53125 1267.851562 557.761719 1251.082031 551.527344 1240.738281 C 547.503906 1234.054688 541.894531 1228.054688 534.613281 1224.945312 C 527.34375 1221.832031 521.378906 1222.675781 515.207031 1225.078125 Z M 515.195312 1225.066406 " fill-opacity="1" fill-rule="nonzero"/><path fill="#ffdbc1" d="M 553.285156 1316.304688 C 541.417969 1331.527344 530.953125 1354.648438 539.382812 1378.824219 C 547.808594 1402.996094 584.910156 1424.914062 617.511719 1409.179688 C 650.109375 1393.445312 689.457031 1337.234375 708.566406 1300.132812 C 727.679688 1263.03125 736.105469 1235.03125 694.515625 1222.613281 C 652.914062 1210.199219 612.449219 1278.214844 600.644531 1288.328125 C 588.835938 1298.449219 559.359375 1308.5 553.273438 1316.304688 Z M 553.285156 1316.304688 " fill-opacity="1" fill-rule="nonzero"/><path fill="#ffdbc1" d="M 626.511719 1386.691406 C 622.011719 1406.777344 616.386719 1419.289062 633.816406 1444.585938 C 651.246094 1469.878906 683.84375 1462.574219 702.957031 1452.453125 C 722.066406 1442.328125 751.300781 1405.800781 793.453125 1337.78125 C 835.613281 1269.765625 823.246094 1254.59375 799.636719 1238.285156 C 776.023438 1221.980469 753.546875 1239.96875 741.179688 1255.152344 C 728.8125 1270.324219 679.34375 1329.917969 679.34375 1329.917969 Z M 626.511719 1386.691406 " fill-opacity="1" fill-rule="nonzero"/><g clip-path="url(#dc21c66e07)"><path fill="#ffdbc1" d="M 721.59375 1423.230469 C 718.691406 1434.472656 718.128906 1458.074219 733.300781 1472.699219 C 748.472656 1487.308594 796.511719 1484.039062 811.003906 1464.597656 C 825.492188 1445.160156 865.398438 1388.945312 866.519531 1355.785156 C 867.640625 1322.625 829.417969 1296.765625 783.328125 1340.050781 C 737.238281 1383.335938 721.59375 1423.242188 721.59375 1423.242188 Z M 721.59375 1423.230469 " fill-opacity="1" fill-rule="nonzero"/></g><path fill="#ffb580" d="M 624.230469 1409.386719 C 622.132812 1409.386719 620.035156 1408.53125 618.523438 1406.851562 C 615.679688 1403.703125 615.9375 1398.835938 619.082031 1395.996094 C 655.378906 1363.273438 685.746094 1324.976562 709.347656 1282.191406 C 711.394531 1278.472656 716.066406 1277.121094 719.789062 1279.179688 C 723.507812 1281.230469 724.859375 1285.902344 722.800781 1289.621094 C 698.371094 1333.917969 666.929688 1373.542969 629.363281 1407.421875 C 627.902344 1408.753906 626.058594 1409.398438 624.21875 1409.398438 Z M 624.230469 1409.386719 " fill-opacity="1" fill-rule="nonzero"/><path fill="#ffb580" d="M 719.933594 1445.890625 C 718.066406 1445.890625 716.1875 1445.207031 714.703125 1443.839844 C 711.589844 1440.949219 711.410156 1436.085938 714.300781 1432.972656 C 744.046875 1400.945312 769.035156 1364.882812 788.574219 1325.78125 C 790.476562 1321.988281 795.085938 1320.441406 798.878906 1322.34375 C 802.671875 1324.246094 804.222656 1328.855469 802.320312 1332.648438 C 782.121094 1373.054688 756.289062 1410.324219 725.554688 1443.425781 C 724.042969 1445.058594 721.984375 1445.878906 719.921875 1445.878906 Z M 719.933594 1445.890625 " fill-opacity="1" fill-rule="nonzero"/><path fill="#ffb580" d="M 1037.667969 985.777344 C 1035.144531 985.777344 1032.679688 984.53125 1031.203125 982.265625 C 1021.070312 966.566406 1003.238281 955.53125 984.675781 953.433594 C 980.457031 952.957031 977.417969 949.152344 977.894531 944.929688 C 978.371094 940.710938 982.175781 937.675781 986.394531 938.152344 C 1009.777344 940.785156 1031.351562 954.152344 1044.121094 973.910156 C 1046.425781 977.472656 1045.402344 982.226562 1041.839844 984.53125 C 1040.546875 985.363281 1039.109375 985.765625 1037.679688 985.765625 Z M 1037.667969 985.777344 " fill-opacity="1" fill-rule="nonzero"/><path fill="#ffb580" d="M 1120.359375 1193.28125 C 1118.796875 1193.28125 1117.210938 1192.808594 1115.859375 1191.820312 C 1112.417969 1189.332031 1111.664062 1184.527344 1114.152344 1181.085938 C 1118.945312 1174.476562 1121.90625 1166.671875 1122.699219 1158.535156 C 1123.117188 1154.316406 1126.882812 1151.21875 1131.105469 1151.632812 C 1135.324219 1152.046875 1138.421875 1155.804688 1138.007812 1160.035156 C 1136.945312 1170.890625 1132.996094 1181.28125 1126.605469 1190.113281 C 1125.101562 1192.183594 1122.75 1193.28125 1120.371094 1193.28125 Z M 1120.359375 1193.28125 " fill-opacity="1" fill-rule="nonzero"/><path fill="#ffb580" d="M 679.453125 977.03125 C 679.015625 977.03125 678.578125 976.996094 678.136719 976.921875 C 673.953125 976.203125 671.148438 972.226562 671.867188 968.042969 C 674.40625 953.296875 674.320312 938.359375 671.613281 923.636719 C 670.84375 919.464844 673.601562 915.453125 677.785156 914.683594 C 681.953125 913.917969 685.96875 916.671875 686.734375 920.855469 C 689.773438 937.371094 689.871094 954.113281 687.027344 970.664062 C 686.382812 974.410156 683.136719 977.042969 679.464844 977.042969 Z M 679.453125 977.03125 " fill-opacity="1" fill-rule="nonzero"/><path fill="#ffdbc1" d="M 906 1438.828125 C 904.207031 1438.828125 902.414062 1438.207031 900.960938 1436.9375 L 882.324219 1420.730469 C 866.691406 1407.128906 848.96875 1391.726562 839.1875 1370.835938 C 837.382812 1366.992188 839.042969 1362.417969 842.894531 1360.613281 C 846.738281 1358.820312 851.3125 1360.46875 853.117188 1364.320312 C 861.519531 1382.273438 877.933594 1396.542969 892.410156 1409.128906 L 911.046875 1425.339844 C 914.253906 1428.121094 914.585938 1432.972656 911.804688 1436.183594 C 910.28125 1437.925781 908.144531 1438.828125 906 1438.828125 Z M 906 1438.828125 " fill-opacity="1" fill-rule="nonzero"/><path fill="#ffdbc1" d="M 963.761719 1376.078125 C 961.90625 1376.078125 960.039062 1375.40625 958.5625 1374.054688 C 929.792969 1347.601562 907.742188 1314.121094 894.765625 1277.253906 C 893.351562 1273.253906 895.460938 1268.863281 899.460938 1267.449219 C 903.460938 1266.042969 907.851562 1268.140625 909.265625 1272.144531 C 921.402344 1306.644531 942.050781 1337.964844 968.96875 1362.722656 C 972.089844 1365.601562 972.296875 1370.457031 969.417969 1373.578125 C 967.90625 1375.226562 965.832031 1376.066406 963.761719 1376.066406 Z M 963.761719 1376.078125 " fill-opacity="1" fill-rule="nonzero"/><path fill="#ffdbc1" d="M 1034.914062 1336.074219 C 1032.535156 1336.074219 1030.203125 1334.976562 1028.691406 1332.917969 C 1001.824219 1296.046875 981.226562 1255.289062 967.492188 1211.773438 C 966.210938 1207.722656 968.457031 1203.40625 972.503906 1202.125 C 976.554688 1200.855469 980.871094 1203.089844 982.152344 1207.136719 C 995.382812 1249.054688 1015.226562 1288.328125 1041.121094 1323.855469 C 1043.621094 1327.28125 1042.863281 1332.085938 1039.4375 1334.585938 C 1038.070312 1335.585938 1036.484375 1336.0625 1034.914062 1336.0625 Z M 1034.914062 1336.074219 " fill-opacity="1" fill-rule="nonzero"/><path fill="#fdb37f" d="M 806.832031 359.875 C 807.1875 357.183594 812.144531 353.203125 812.304688 350.492188 C 812.589844 345.566406 805.933594 335.929688 801.359375 334.078125 C 794.097656 331.140625 757.195312 332.515625 757.195312 332.515625 C 753.589844 326.207031 763.621094 310.640625 766.378906 303.917969 C 770.429688 294.066406 769.75 280.996094 764.625 274.28125 C 758.367188 266.074219 746.882812 265.53125 746.644531 269.199219 C 744.933594 295.828125 739.835938 303.210938 733.011719 308.476562 C 728.914062 311.640625 725.328125 314.40625 723.4375 319.226562 C 711.808594 348.847656 703.1875 355.703125 698.261719 355.703125 L 694.976562 355.703125 L 694.976562 423.03125 L 729.453125 429.441406 C 729.453125 429.441406 772.253906 433.492188 785.734375 429.441406 C 789.972656 428.171875 797.292969 421.800781 799.019531 417.714844 C 800.007812 415.371094 798.636719 409.820312 799.804688 407.554688 C 801.527344 404.199219 808.800781 399.996094 808.796875 395.4375 C 808.789062 392.1875 805 386.5625 805.277344 383.320312 C 805.550781 380.078125 812.320312 375.628906 812.3125 372.378906 C 812.296875 368.96875 806.382812 363.257812 806.832031 359.875 Z M 806.832031 359.875 " fill-opacity="1" fill-rule="nonzero"/><path fill="#fdb37f" d="M 688.410156 421.386719 C 688.410156 425.015625 685.46875 427.957031 681.84375 427.957031 L 662.136719 427.957031 C 658.511719 427.957031 655.570312 425.015625 655.570312 421.386719 L 655.570312 358.988281 C 655.570312 355.359375 658.511719 352.421875 662.136719 352.421875 L 681.84375 352.421875 C 685.46875 352.421875 688.410156 355.359375 688.410156 358.988281 Z M 688.410156 421.386719 " fill-opacity="1" fill-rule="nonzero"/></svg>